<?xml version="1.0" encoding="UTF-8" standalone="no"?>
<!-- Generator: Adobe Illustrator 19.0.0, SVG Export Plug-In . SVG Version: 6.00 Build 0)  -->

<svg
   xmlns:dc="http://purl.org/dc/elements/1.1/"
   xmlns:cc="http://creativecommons.org/ns#"
   xmlns:rdf="http://www.w3.org/1999/02/22-rdf-syntax-ns#"
   xmlns:svg="http://www.w3.org/2000/svg"
   xmlns="http://www.w3.org/2000/svg"
   xmlns:sodipodi="http://sodipodi.sourceforge.net/DTD/sodipodi-0.dtd"
   xmlns:inkscape="http://www.inkscape.org/namespaces/inkscape"
   version="1.1"
   id="Capa_1"
   x="0px"
   y="0px"
   viewBox="0 0 55.867 55.867"
   style="enable-background:new 0 0 55.867 55.867;"
   xml:space="preserve"
   sodipodi:docname="dither.svg"
   inkscape:version="0.92.4 (5da689c313, 2019-01-14)"><metadata
   id="metadata2923"><rdf:RDF><cc:Work
       rdf:about=""><dc:format>image/svg+xml</dc:format><dc:type
         rdf:resource="http://purl.org/dc/dcmitype/StillImage" /><dc:title></dc:title></cc:Work></rdf:RDF></metadata><defs
   id="defs2921" /><sodipodi:namedview
   pagecolor="#ffffff"
   bordercolor="#666666"
   borderopacity="1"
   objecttolerance="10"
   gridtolerance="10"
   guidetolerance="10"
   inkscape:pageopacity="0"
   inkscape:pageshadow="2"
   inkscape:window-width="2560"
   inkscape:window-height="1377"
   id="namedview2919"
   showgrid="false"
   inkscape:zoom="5.9740884"
   inkscape:cx="-93.496249"
   inkscape:cy="-33.30304"
   inkscape:window-x="-8"
   inkscape:window-y="-8"
   inkscape:window-maximized="1"
   inkscape:current-layer="Capa_1" />
















<path
   style="color:#000000;font-style:normal;font-variant:normal;font-weight:normal;font-stretch:normal;font-size:medium;line-height:normal;font-family:sans-serif;font-variant-ligatures:normal;font-variant-position:normal;font-variant-caps:normal;font-variant-numeric:normal;font-variant-alternates:normal;font-feature-settings:normal;text-indent:0;text-align:start;text-decoration:none;text-decoration-line:none;text-decoration-style:solid;text-decoration-color:#000000;letter-spacing:normal;word-spacing:normal;text-transform:none;writing-mode:lr-tb;direction:ltr;text-orientation:mixed;dominant-baseline:auto;baseline-shift:baseline;text-anchor:start;white-space:normal;shape-padding:0;clip-rule:nonzero;display:inline;overflow:visible;visibility:visible;opacity:1;isolation:auto;mix-blend-mode:normal;color-interpolation:sRGB;color-interpolation-filters:linearRGB;solid-color:#000000;solid-opacity:1;vector-effect:none;fill:#000000;fill-opacity:1;fill-rule:nonzero;stroke:none;stroke-width:0.51277918;stroke-linecap:butt;stroke-linejoin:miter;stroke-miterlimit:4;stroke-dasharray:none;stroke-dashoffset:0;stroke-opacity:1;color-rendering:auto;image-rendering:auto;shape-rendering:auto;text-rendering:auto;enable-background:accumulate"
   d="m 35.76861,2.7263456 -0.196292,8.8614644 -7.411261,4.861389 8.366715,2.926445 2.333545,8.550994 5.368157,-7.05472 8.853453,0.422642 -0.294448,-0.426649 -4.755227,-6.858419 3.138771,-8.2885973 -8.4889,2.5518776 z m 0.488743,1.0495961 6.315598,5.0656956 7.751776,-2.3295387 -2.866357,7.5695014 4.611008,6.652106 -8.084284,-0.386586 -4.901448,6.441788 -2.131237,-7.809866 -7.641612,-2.670058 6.768284,-4.440747 z"
   id="path8942"
   inkscape:connector-curvature="0" /><path
   style="color:#000000;font-style:normal;font-variant:normal;font-weight:normal;font-stretch:normal;font-size:medium;line-height:normal;font-family:sans-serif;font-variant-ligatures:normal;font-variant-position:normal;font-variant-caps:normal;font-variant-numeric:normal;font-variant-alternates:normal;font-feature-settings:normal;text-indent:0;text-align:start;text-decoration:none;text-decoration-line:none;text-decoration-style:solid;text-decoration-color:#000000;letter-spacing:normal;word-spacing:normal;text-transform:none;writing-mode:lr-tb;direction:ltr;text-orientation:mixed;dominant-baseline:auto;baseline-shift:baseline;text-anchor:start;white-space:normal;shape-padding:0;clip-rule:nonzero;display:inline;overflow:visible;visibility:visible;opacity:1;isolation:auto;mix-blend-mode:normal;color-interpolation:sRGB;color-interpolation-filters:linearRGB;solid-color:#000000;solid-opacity:1;vector-effect:none;fill:#000000;fill-opacity:1;fill-rule:nonzero;stroke:none;stroke-width:1.77755439;stroke-linecap:butt;stroke-linejoin:miter;stroke-miterlimit:4;stroke-dasharray:none;stroke-dashoffset:0;stroke-opacity:1;color-rendering:auto;image-rendering:auto;shape-rendering:auto;text-rendering:auto;enable-background:accumulate"
   d="m 10.105142,26.23865 -0.2131971,9.611468 -8.0369417,5.273203 9.0735878,3.17253 2.532935,9.275045 5.820865,-7.65162 9.60169,0.459645 -1.02491,-1.480644 -4.451711,-6.419381 3.403328,-8.991437 -9.20659,2.767648 z m 1.697752,3.639996 5.417943,4.348046 6.652137,-2.000923 -2.458612,6.49762 3.956858,5.707419 -6.937705,-0.330552 -4.205261,5.527474 -1.830756,-6.701035 -6.5562955,-2.292357 5.8071725,-3.810164 z"
   id="path8942-3"
   inkscape:connector-curvature="0" /><path
   style="color:#000000;font-style:normal;font-variant:normal;font-weight:normal;font-stretch:normal;font-size:medium;line-height:normal;font-family:sans-serif;font-variant-ligatures:normal;font-variant-position:normal;font-variant-caps:normal;font-variant-numeric:normal;font-variant-alternates:normal;font-feature-settings:normal;text-indent:0;text-align:start;text-decoration:none;text-decoration-line:none;text-decoration-style:solid;text-decoration-color:#000000;letter-spacing:normal;word-spacing:normal;text-transform:none;writing-mode:lr-tb;direction:ltr;text-orientation:mixed;dominant-baseline:auto;baseline-shift:baseline;text-anchor:start;white-space:normal;shape-padding:0;clip-rule:nonzero;display:inline;overflow:visible;visibility:visible;opacity:1;isolation:auto;mix-blend-mode:normal;color-interpolation:sRGB;color-interpolation-filters:linearRGB;solid-color:#000000;solid-opacity:1;vector-effect:none;fill:#000000;fill-opacity:1;fill-rule:nonzero;stroke:none;stroke-width:2.00287819;stroke-linecap:butt;stroke-linejoin:miter;stroke-miterlimit:4;stroke-dasharray:none;stroke-dashoffset:0;stroke-opacity:1;color-rendering:auto;image-rendering:auto;shape-rendering:auto;text-rendering:auto;enable-background:accumulate"
   d="M 40.384983,14.066862 15.25512,39.077412 16.669262,40.495466 41.797168,15.484914 Z"
   id="path8965"
   inkscape:connector-curvature="0" /><g
   transform="matrix(0.15914739,0,0,0.15914739,31.191738,29.612159)"
   id="g3559"
   style="fill:#000000;fill-opacity:1;stroke:none;stroke-width:3.27730665;stroke-miterlimit:4;stroke-dasharray:none;stroke-opacity:1"><g
     id="_x33_50._Repeat"
     style="fill:#000000;fill-opacity:1;stroke:none;stroke-width:3.27730665;stroke-miterlimit:4;stroke-dasharray:none;stroke-opacity:1"><g
       id="g3556"
       style="fill:#000000;fill-opacity:1;stroke:none;stroke-width:3.27730665;stroke-miterlimit:4;stroke-dasharray:none;stroke-opacity:1"><path
         inkscape:connector-curvature="0"
         d="M 42.735,121.521 C 29.965,111.248 21.793,95.496 21.793,77.83 21.793,51.716 39.675,29.838 63.844,23.6 V 9.154 C 31.854,15.646 7.776,43.927 7.776,77.83 c 0,20.951 9.199,39.738 23.767,52.578 11.276,10.503 18.284,-3.514 11.192,-8.887 z m 80.854,-96.775 c -7.18,-6.485 -17.693,4.028 -10.801,9.236 12.888,10.27 21.143,26.097 21.143,43.848 0,26.118 -17.885,48 -42.052,54.234 v 14.449 c 31.99,-6.499 56.068,-34.776 56.068,-68.684 0,-21.227 -9.445,-40.233 -24.358,-53.083 z M 70.037,35.707 92.85,22.046 c 3.319,-1.988 3.326,-5.226 0.018,-7.228 L 69.844,0.883 c -3.312,-1.999 -5.985,-0.49 -5.969,3.381 l 0.124,28.035 c 0.01,3.869 2.715,5.396 6.038,3.408 z m 15.846,84.322 -23.027,13.935 c -3.311,2.002 -3.304,5.239 0.019,7.228 l 22.811,13.662 c 3.319,1.984 6.03,0.462 6.047,-3.412 l 0.12,-28.034 c 0.012,-3.868 -2.665,-5.378 -5.97,-3.379 z"
         id="path3554"
         style="fill:#000000;fill-opacity:1;stroke:none;stroke-width:3.27730665;stroke-miterlimit:4;stroke-dasharray:none;stroke-opacity:1" /></g></g></g><g
   transform="matrix(0.3447351,0,0,0.3447351,1.8020827,1.3284067)"
   id="g3561" /><g
   transform="matrix(0.3447351,0,0,0.3447351,1.8020827,1.3284067)"
   id="g3563" /><g
   transform="matrix(0.3447351,0,0,0.3447351,1.8020827,1.3284067)"
   id="g3565" /><g
   transform="matrix(0.3447351,0,0,0.3447351,1.8020827,1.3284067)"
   id="g3567" /><g
   transform="matrix(0.3447351,0,0,0.3447351,1.8020827,1.3284067)"
   id="g3569" /><g
   transform="matrix(0.3447351,0,0,0.3447351,1.8020827,1.3284067)"
   id="g3571" /><g
   transform="matrix(0.3447351,0,0,0.3447351,1.8020827,1.3284067)"
   id="g3573" /><g
   transform="matrix(0.3447351,0,0,0.3447351,1.8020827,1.3284067)"
   id="g3575" /><g
   transform="matrix(0.3447351,0,0,0.3447351,1.8020827,1.3284067)"
   id="g3577" /><g
   transform="matrix(0.3447351,0,0,0.3447351,1.8020827,1.3284067)"
   id="g3579" /><g
   transform="matrix(0.3447351,0,0,0.3447351,1.8020827,1.3284067)"
   id="g3581" /><g
   transform="matrix(0.3447351,0,0,0.3447351,1.8020827,1.3284067)"
   id="g3583" /><g
   transform="matrix(0.3447351,0,0,0.3447351,1.8020827,1.3284067)"
   id="g3585" /><g
   transform="matrix(0.3447351,0,0,0.3447351,1.8020827,1.3284067)"
   id="g3587" /><g
   transform="matrix(0.3447351,0,0,0.3447351,1.8020827,1.3284067)"
   id="g3589" /></svg>