<?xml version="1.0" encoding="UTF-8" standalone="no"?>
<!-- Generator: Adobe Illustrator 19.0.0, SVG Export Plug-In . SVG Version: 6.00 Build 0)  -->

<svg
   xmlns:dc="http://purl.org/dc/elements/1.1/"
   xmlns:cc="http://creativecommons.org/ns#"
   xmlns:rdf="http://www.w3.org/1999/02/22-rdf-syntax-ns#"
   xmlns:svg="http://www.w3.org/2000/svg"
   xmlns="http://www.w3.org/2000/svg"
   xmlns:sodipodi="http://sodipodi.sourceforge.net/DTD/sodipodi-0.dtd"
   xmlns:inkscape="http://www.inkscape.org/namespaces/inkscape"
   version="1.1"
   id="Capa_1"
   x="0px"
   y="0px"
   viewBox="0 0 55.867 55.867"
   style="enable-background:new 0 0 55.867 55.867;"
   xml:space="preserve"
   sodipodi:docname="syncwait.svg"
   inkscape:version="0.92.4 (5da689c313, 2019-01-14)"><metadata
   id="metadata2923"><rdf:RDF><cc:Work
       rdf:about=""><dc:format>image/svg+xml</dc:format><dc:type
         rdf:resource="http://purl.org/dc/dcmitype/StillImage" /><dc:title></dc:title></cc:Work></rdf:RDF></metadata><defs
   id="defs2921" /><sodipodi:namedview
   pagecolor="#ffffff"
   bordercolor="#666666"
   borderopacity="1"
   objecttolerance="10"
   gridtolerance="10"
   guidetolerance="10"
   inkscape:pageopacity="0"
   inkscape:pageshadow="2"
   inkscape:window-width="3840"
   inkscape:window-height="2066"
   id="namedview2919"
   showgrid="false"
   inkscape:zoom="8.4486368"
   inkscape:cx="43.541751"
   inkscape:cy="8.2937545"
   inkscape:window-x="-11"
   inkscape:window-y="-11"
   inkscape:window-maximized="1"
   inkscape:current-layer="Capa_1" />
















<g
   transform="matrix(0.15914739,0,0,0.15914739,31.191738,29.612159)"
   id="g3559"
   style="fill:#000000;fill-opacity:1;stroke:none;stroke-width:3.27730665;stroke-miterlimit:4;stroke-dasharray:none;stroke-opacity:1"><g
     id="_x33_50._Repeat"
     style="fill:#000000;fill-opacity:1;stroke:none;stroke-width:3.27730665;stroke-miterlimit:4;stroke-dasharray:none;stroke-opacity:1"><g
       id="g3556"
       style="fill:#000000;fill-opacity:1;stroke:none;stroke-width:3.27730665;stroke-miterlimit:4;stroke-dasharray:none;stroke-opacity:1"><path
         inkscape:connector-curvature="0"
         d="M 42.735,121.521 C 29.965,111.248 21.793,95.496 21.793,77.83 21.793,51.716 39.675,29.838 63.844,23.6 V 9.154 C 31.854,15.646 7.776,43.927 7.776,77.83 c 0,20.951 9.199,39.738 23.767,52.578 11.276,10.503 18.284,-3.514 11.192,-8.887 z m 80.854,-96.775 c -7.18,-6.485 -17.693,4.028 -10.801,9.236 12.888,10.27 21.143,26.097 21.143,43.848 0,26.118 -17.885,48 -42.052,54.234 v 14.449 c 31.99,-6.499 56.068,-34.776 56.068,-68.684 0,-21.227 -9.445,-40.233 -24.358,-53.083 z M 70.037,35.707 92.85,22.046 c 3.319,-1.988 3.326,-5.226 0.018,-7.228 L 69.844,0.883 c -3.312,-1.999 -5.985,-0.49 -5.969,3.381 l 0.124,28.035 c 0.01,3.869 2.715,5.396 6.038,3.408 z m 15.846,84.322 -23.027,13.935 c -3.311,2.002 -3.304,5.239 0.019,7.228 l 22.811,13.662 c 3.319,1.984 6.03,0.462 6.047,-3.412 l 0.12,-28.034 c 0.012,-3.868 -2.665,-5.378 -5.97,-3.379 z"
         id="path3554"
         style="fill:#000000;fill-opacity:1;stroke:none;stroke-width:3.27730665;stroke-miterlimit:4;stroke-dasharray:none;stroke-opacity:1" /></g></g></g><g
   transform="matrix(0.3447351,0,0,0.3447351,1.8020827,1.3284067)"
   id="g3561" /><g
   transform="matrix(0.3447351,0,0,0.3447351,1.8020827,1.3284067)"
   id="g3563" /><g
   transform="matrix(0.3447351,0,0,0.3447351,1.8020827,1.3284067)"
   id="g3565" /><g
   transform="matrix(0.3447351,0,0,0.3447351,1.8020827,1.3284067)"
   id="g3567" /><g
   transform="matrix(0.3447351,0,0,0.3447351,1.8020827,1.3284067)"
   id="g3569" /><g
   transform="matrix(0.3447351,0,0,0.3447351,1.8020827,1.3284067)"
   id="g3571" /><g
   transform="matrix(0.3447351,0,0,0.3447351,1.8020827,1.3284067)"
   id="g3573" /><g
   transform="matrix(0.3447351,0,0,0.3447351,1.8020827,1.3284067)"
   id="g3575" /><g
   transform="matrix(0.3447351,0,0,0.3447351,1.8020827,1.3284067)"
   id="g3577" /><g
   transform="matrix(0.3447351,0,0,0.3447351,1.8020827,1.3284067)"
   id="g3579" /><g
   transform="matrix(0.3447351,0,0,0.3447351,1.8020827,1.3284067)"
   id="g3581" /><g
   transform="matrix(0.3447351,0,0,0.3447351,1.8020827,1.3284067)"
   id="g3583" /><g
   transform="matrix(0.3447351,0,0,0.3447351,1.8020827,1.3284067)"
   id="g3585" /><g
   transform="matrix(0.3447351,0,0,0.3447351,1.8020827,1.3284067)"
   id="g3587" /><g
   transform="matrix(0.3447351,0,0,0.3447351,1.8020827,1.3284067)"
   id="g3589" /><g
   transform="matrix(0.07714405,0,0,0.07714405,-3.8787882,1.5534659)"
   id="g7568"><g
     id="g7566"><g
       id="g7564"><path
         inkscape:connector-curvature="0"
         d="M 405.333,102.99 V 64 C 428.865,64 448,44.865 448,21.333 V 10.667 C 448,4.771 443.229,0 437.333,0 H 74.667 C 68.771,0 64,4.771 64,10.667 V 21.334 C 64,44.865 83.135,64 106.667,64 v 38.99 c 0,39.25 16.729,76.823 45.906,103.073 L 208.052,256 152.573,305.938 c -29.177,26.25 -45.906,63.823 -45.906,103.073 V 448 C 83.135,448 64,467.135 64,490.667 v 10.667 C 64,507.229 68.771,512 74.667,512 h 362.667 c 5.896,0 10.667,-4.771 10.667,-10.667 V 490.666 C 448,467.135 428.865,448 405.333,448 v -38.99 c 0,-39.25 -16.729,-76.823 -45.906,-103.073 L 303.948,256 359.427,206.062 c 29.177,-26.249 45.906,-63.822 45.906,-103.072 z m -320,-81.657 h 341.333 c 0,11.76 -9.573,21.333 -21.333,21.333 H 106.667 C 94.906,42.667 85.333,33.094 85.333,21.333 Z M 426.667,490.667 H 85.333 c 0,-11.76 9.573,-21.333 21.333,-21.333 h 298.667 c 11.761,-10e-4 21.334,9.572 21.334,21.333 z M 181.329,448 256,348.448 330.671,448 Z m 163.827,-257.792 -64.292,57.865 c -2.25,2.021 -3.531,4.906 -3.531,7.927 0,3.021 1.281,5.906 3.531,7.927 l 64.292,57.865 C 369.844,344.01 384,375.802 384,409.01 V 448 H 357.328 L 264.531,324.271 c -4.021,-5.375 -13.042,-5.375 -17.063,0 L 154.672,448 H 128 v -38.99 c 0,-33.208 14.156,-65 38.844,-87.219 l 64.292,-57.865 c 2.25,-2.021 3.531,-4.906 3.531,-7.927 0,-3.021 -1.281,-5.906 -3.531,-7.927 L 166.844,190.207 C 142.156,167.99 128,136.198 128,102.99 V 64 h 256 v 38.99 c 0,33.208 -14.156,65 -38.844,87.218 z"
         id="path7560" /><path
         inkscape:connector-curvature="0"
         d="M 329.521,149.333 H 182.469 c -4.219,0 -8.042,2.49 -9.75,6.344 -1.708,3.865 -0.99,8.365 1.854,11.49 l 1.667,1.948 c 1.531,1.823 3.083,3.635 4.854,5.219 l 67.75,61.354 c 2.031,1.844 4.594,2.76 7.156,2.76 2.562,0 5.125,-0.917 7.156,-2.76 l 67.729,-61.344 c 1.792,-1.604 3.344,-3.406 4.865,-5.229 l 1.667,-1.948 c 2.844,-3.125 3.563,-7.625 1.854,-11.49 -1.708,-3.854 -5.531,-6.344 -9.75,-6.344 z M 256,213.385 208.823,170.666 h 94.344 z"
         id="path7562" /></g></g></g><g
   transform="matrix(0.08824049,0,0,0.08824049,37.335851,-15.935095)"
   id="g7570" /><g
   transform="matrix(0.08824049,0,0,0.08824049,37.335851,-15.935095)"
   id="g7572" /><g
   transform="matrix(0.08824049,0,0,0.08824049,37.335851,-15.935095)"
   id="g7574" /><g
   transform="matrix(0.08824049,0,0,0.08824049,37.335851,-15.935095)"
   id="g7576" /><g
   transform="matrix(0.08824049,0,0,0.08824049,37.335851,-15.935095)"
   id="g7578" /><g
   transform="matrix(0.08824049,0,0,0.08824049,37.335851,-15.935095)"
   id="g7580" /><g
   transform="matrix(0.08824049,0,0,0.08824049,37.335851,-15.935095)"
   id="g7582" /><g
   transform="matrix(0.08824049,0,0,0.08824049,37.335851,-15.935095)"
   id="g7584" /><g
   transform="matrix(0.08824049,0,0,0.08824049,37.335851,-15.935095)"
   id="g7586" /><g
   transform="matrix(0.08824049,0,0,0.08824049,37.335851,-15.935095)"
   id="g7588" /><g
   transform="matrix(0.08824049,0,0,0.08824049,37.335851,-15.935095)"
   id="g7590" /><g
   transform="matrix(0.08824049,0,0,0.08824049,37.335851,-15.935095)"
   id="g7592" /><g
   transform="matrix(0.08824049,0,0,0.08824049,37.335851,-15.935095)"
   id="g7594" /><g
   transform="matrix(0.08824049,0,0,0.08824049,37.335851,-15.935095)"
   id="g7596" /><g
   transform="matrix(0.08824049,0,0,0.08824049,37.335851,-15.935095)"
   id="g7598" /></svg>